# xmcd
#
# Track frame offsets:
#	150
#	17100
#	32285
#	48462
#	64531
#	81753
#	95455
#	111535
#	125800
#	141146
#	162372
#
# Disc length: 2396 seconds
#
# Revision: 0
# Processed by: cddbd v1.5.1PL0 Copyright (c) Steve Scherf et al.
# Submitted via: audiograbber 1.83.01
#
DISCID=91095a0b
DTITLE=Womack, Lee Ann - Lee Ann Womack - Womack, Lee Ann - Lee Ann Womack
DYEAR=1900
DGENRE=Country
TTITLE0=Never Again, Again
TTITLE1=A Man With 18 Wheels
TTITLE2=You've Got To Talk To Me
TTITLE3=The Fool
TTITLE4=Am I The Only Thing You've Done Wrong
TTITLE5=Buckaroo
TTITLE6=Make Memories With Me (Duet With Mark Chesnutt)
TTITLE7=Trouble's Here
TTITLE8=Do You Feel For Me
TTITLE9=Montgomery To Memphis
TTITLE10=Get Up In Jesus' Name
EXTD=
EXTT0=
EXTT1=
EXTT2=
EXTT3=
EXTT4=
EXTT5=
EXTT6=
EXTT7=
EXTT8=
EXTT9=
EXTT10=
PLAYORDER=
